<svg width="80" height="14" viewBox="0 0 80 14" fill="none" xmlns="http://www.w3.org/2000/svg">
<g clip-path="url(#clip0_61_892)">
<path fill-rule="evenodd" clip-rule="evenodd" d="M8.08664 0.324902C6.8106 0.324902 5.77617 1.35934 5.77617 2.63537C5.77617 3.91141 6.8106 4.94584 8.08664 4.94584C9.36274 4.94584 10.3971 3.91141 10.3971 2.63537C10.3971 1.35934 9.36274 0.324902 8.08664 0.324902ZM3.56915 4.81977C5.97422 4.81977 7.9239 6.76946 7.9239 9.1745V12.7437H5.75785V9.1745C5.75785 8.91833 5.71386 8.67255 5.63301 8.4441L2.45136 11.6258L0.919725 10.0941L3.98798 7.02587C3.85242 6.9996 3.71239 6.98584 3.56915 6.98584H0V4.81977H3.56915ZM12.658 4.81977C10.253 4.81977 8.30325 6.76946 8.30325 9.1745V12.7437H10.4693V9.1745C10.4693 8.97392 10.4963 8.77955 10.5469 8.595L13.8751 11.9232L15.4068 10.3915L12.0786 7.06337C12.2631 7.01283 12.4575 6.98584 12.658 6.98584H16.2271V4.81977H12.658Z" fill="#FF814C"/>
<path d="M19.6931 12.8689V0.418652H23.2192L26.9997 11.0877H27.2723V0.418652H29.2898V12.8689H25.8365L21.965 2.18168H21.7106V12.8689H19.6931Z" fill="#183282"/>
<path d="M37.3722 11.2324L37.881 11.1779L37.9174 12.6501C36.5361 12.9288 35.3122 13.0682 34.246 13.0682C32.901 13.0682 31.9316 12.6985 31.3379 11.9595C30.7563 11.2202 30.4655 10.0389 30.4655 8.41519C30.4655 5.19205 31.7801 3.58048 34.4096 3.58048C36.9541 3.58048 38.2265 4.96788 38.2265 7.7427L38.0992 9.16032H32.4647C32.4769 9.91165 32.6405 10.463 32.9556 10.8143C33.2705 11.1658 33.8582 11.3414 34.7186 11.3414C35.5788 11.3414 36.4634 11.3052 37.3722 11.2324ZM36.2816 7.63368C36.2816 6.73697 36.1362 6.11294 35.8454 5.76155C35.5668 5.39804 35.0881 5.21628 34.4096 5.21628C33.731 5.21628 33.2343 5.40409 32.9192 5.77972C32.6162 6.15535 32.4587 6.77332 32.4467 7.63368H36.2816Z" fill="#183282"/>
<path d="M44.1122 5.471H41.6039V9.46961C41.6039 10.2088 41.6585 10.6995 41.7675 10.9418C41.8765 11.1841 42.1552 11.3054 42.6036 11.3054L44.094 11.2508L44.1848 12.8321C43.373 12.9896 42.7551 13.0685 42.3309 13.0685C41.3011 13.0685 40.5922 12.8321 40.2044 12.3596C39.8287 11.8869 39.641 10.9964 39.641 9.68781V5.471H38.4777V3.78068H39.641V1.14521H41.6039V3.78068H44.1122V5.471Z" fill="#183282"/>
<path d="M44.1194 3.78026H46.0642L47.5 11.1778H47.8635L49.5903 3.96202H51.626L53.3526 11.1778H53.7161L55.1338 3.78026H57.0967L55.1701 12.868H52.0258L50.6081 6.63382L49.1904 12.868H46.046L44.1194 3.78026Z" fill="#183282"/>
<path d="M58.3611 4.7619C58.9912 3.97429 60.0332 3.58048 61.4873 3.58048C62.9413 3.58048 63.9773 3.97429 64.5954 4.7619C65.2254 5.54949 65.5405 6.73091 65.5405 8.30617C65.5405 9.88133 65.2375 11.0688 64.6316 11.8685C64.0258 12.6683 62.9777 13.0682 61.4873 13.0682C59.9969 13.0682 58.9487 12.6683 58.3429 11.8685C57.737 11.0688 57.4342 9.88133 57.4342 8.30617C57.4342 6.73091 57.7431 5.54949 58.3611 4.7619ZM59.8515 10.6689C60.1302 11.1537 60.6755 11.396 61.4873 11.396C62.2992 11.396 62.8445 11.1537 63.1232 10.6689C63.4019 10.1843 63.5412 9.39064 63.5412 8.28797C63.5412 7.1853 63.3897 6.40374 63.0868 5.9433C62.7959 5.48285 62.2628 5.25263 61.4873 5.25263C60.7117 5.25263 60.1725 5.48285 59.8697 5.9433C59.5789 6.40374 59.4335 7.1853 59.4335 8.28797C59.4335 9.39064 59.5728 10.1843 59.8515 10.6689Z" fill="#183282"/>
<path d="M66.5994 12.8682V3.78041H68.5624V4.87095C69.5923 4.20451 70.6223 3.77435 71.6522 3.58048V5.56162C70.6102 5.7676 69.7195 6.03419 68.9804 6.36135L68.5806 6.52492V12.8682H66.5994Z" fill="#183282"/>
<path d="M74.2389 12.8684H72.2578V0.000125885H74.2389V7.43391L75.3658 7.32489L77.5105 3.78064H79.728L77.1107 8.03377L79.8734 12.8684H77.6377L75.4204 9.03334L74.2389 9.16056V12.8684Z" fill="#183282"/>
</g>
<defs>
<clipPath id="clip0_61_892">
<rect width="80" height="13.1408" fill="white"/>
</clipPath>
</defs>
</svg>
